<?xml version="1.0" encoding="UTF-8" standalone="no"?><svg xmlns="http://www.w3.org/2000/svg" xmlns:xlink="http://www.w3.org/1999/xlink" contentScriptType="text/ecmascript" fill="#000000" width="469.7" zoomAndPan="magnify" contentStyleType="text/css" viewBox="0.0 0.0 469.7 313.1" height="313.1" preserveAspectRatio="xMidYMid meet" version="1"><g><path fill="#ffd351" d="M469.67,19.12v43.49v187.87V294c0,10.54-8.56,19.1-19.12,19.1H19.12c-10.54,0-19.1-8.56-19.1-19.1v-43.52H0 V62.62h0.02V19.12C0.02,8.56,8.58,0,19.12,0h431.43C461.11,0,469.67,8.56,469.67,19.12z"/></g><g><path fill="#ffd351" d="M469.67,62.62v187.87H0V62.62H469.67z"/></g><g><path fill="#c9424b" d="M469.67,19.12v43.49H0.02V19.12C0.02,8.56,8.58,0,19.12,0h431.43C461.11,0,469.67,8.56,469.67,19.12z M0.02,250.48V294c0,10.54,8.56,19.1,19.1,19.1h431.43c10.56,0,19.12-8.56,19.12-19.1v-43.52H0.02z"/></g><g><path fill="#aa191d" d="M191.73,170.97l27.86-7.85l-2.19,5.33l-25.66,10V170.97z"/></g><g><path fill="#aa191d" d="M75.64,162.94l24.33,8.03l-3.21,7.12l-22.46-9.64L75.64,162.94z"/></g><g><path fill="#cdb100" d="M118.9,174.44v45.8c-1.28-0.96-2.47-2.04-3.57-3.19v-42.61H118.9z M145.12,189.37 c-0.17-0.01-0.33-0.03-0.5-0.05c-0.2-0.02-0.4-0.06-0.6-0.09c-0.2-0.04-0.39-0.08-0.59-0.13c-0.78-0.19-1.52-0.48-2.24-0.86v27.33 c2.79-2.63,4.6-6.22,4.65-11.07v-15.1C145.6,189.4,145.36,189.39,145.12,189.37z M106.72,174.44v21.24c0,5.37,1.37,10.41,3.78,14.81 v-36.05H106.72z M123.71,174.44v47.86c1.4-0.16,2.84-0.39,4.28-0.67v-47.19H123.71z M135.79,182.53c-0.08-0.17-0.17-0.34-0.25-0.53 c-0.05-0.1-0.09-0.2-0.13-0.3c-0.07-0.15-0.13-0.31-0.19-0.46c-0.21-0.53-0.39-1.07-0.53-1.62c-0.04-0.14-0.08-0.29-0.11-0.43 c-0.04-0.16-0.08-0.32-0.11-0.48c-0.05-0.22-0.09-0.45-0.13-0.67c-0.04-0.26-0.08-0.52-0.11-0.79c-0.03-0.21-0.05-0.43-0.06-0.65 c-0.02-0.25-0.04-0.51-0.05-0.77c-0.01-0.23-0.01-0.46-0.01-0.69c0-0.23,0.01-0.47,0.01-0.7h-1.28v45.9 c1.24-0.42,2.44-0.91,3.57-1.47v-35.25C136.17,183.27,135.97,182.9,135.79,182.53z"/></g><g><path fill="#ae191b" d="M106.71,130.73v43.7h27.38c0.07-1.47,0.32-2.92,0.74-4.26h-18.85v-7.04h1.98v-11.37h-1.98v-7.04h20v7.04H134 v11.37h1.98v4.26c2.09-3.91,5.73-6.51,9.87-6.51v-30.15H106.71z M122.12,143.39h-2.58v-2.58h2.58V143.39z M127.28,143.39h-2.58 v-4.83h2.58V143.39z M132.73,143.39h-2.58v-2.58h2.58V143.39z"/></g><g><path fill="#cfcfd3" d="M170.06,222.11c-4.65,2.82-10.1,4.43-15.94,4.43h-16.55c-0.4,0-0.8-0.01-1.19-0.03 c-1.21-0.04-2.4-0.15-3.57-0.34c-1.65-0.26-3.26-0.65-4.82-1.16c-1.48-0.48-2.91-1.07-4.28-1.76c-0.51-0.25-1-0.52-1.48-0.8 c0.49-0.04,0.98-0.09,1.48-0.15c1.4-0.16,2.84-0.39,4.28-0.67c1.62-0.33,3.24-0.75,4.82-1.28c1.24-0.42,2.44-0.91,3.57-1.47 c1.78-0.89,3.43-1.97,4.82-3.3c2.79-2.63,4.6-6.22,4.65-11.07C145.84,205.89,146.36,222.02,170.06,222.11z"/></g><g><path fill="#ab191b" d="M157.59,174.43c0.02,0.23,0.02,0.48,0.02,0.71c0,1.73-0.25,3.36-0.71,4.88c0,0.02-0.02,0.07-0.02,0.09 c-1.1,3.64-3.43,6.6-6.37,8.12c-0.25,0.14-0.48,0.23-0.74,0.32c-1.22,0.53-2.53,0.83-3.91,0.83v15.12c0,1.38,0.51,17.51,24.21,17.6 c8.95-5.41,14.93-15.23,14.93-26.44v-21.24H157.59z M165.41,198.16c-1.33,0-2.42-1.08-2.42-2.42c0-1.33,1.08-2.42,2.42-2.42 c1.33,0,2.42,1.08,2.42,2.42C167.83,197.07,166.74,198.16,165.41,198.16z"/></g><g><path fill="#cfcfd3" d="M145.85,130.73v30.15c6.31,0,11.44,6.01,11.74,13.55h27.41v-43.7H145.85z M173.53,160.42l-0.51,12.04 l-3.22-0.14l0.44-10.47l-3.01,1.29l-0.9-2.09l-5.96,6.47l-2.37-2.19l6.95-7.52l-2.37-5.5l-11.16,3.31l-0.92-3.08l9.92-2.95 l-8.84-6.44l1.89-2.6l9.14,6.63v-11.6h10.01V149H169l4.26,9.92l0.3,0.74L173.53,160.42z"/></g><g><path fill="#164899" d="M157.59,174.43c-0.3-7.55-5.43-13.55-11.74-13.55c-4.14,0-7.78,2.6-9.87,6.51 c-0.48,0.87-0.85,1.79-1.15,2.78c-0.41,1.33-0.67,2.78-0.74,4.26v1.4c0,0.25,0.02,0.51,0.05,0.76c0.02,0.23,0.05,0.44,0.07,0.64 c0.05,0.28,0.07,0.53,0.12,0.81c0.05,0.21,0.09,0.44,0.14,0.67c0.02,0.16,0.07,0.32,0.12,0.48c0.02,0.14,0.07,0.28,0.09,0.41 c0.16,0.58,0.35,1.1,0.55,1.63c0.05,0.16,0.12,0.3,0.18,0.46c0.05,0.12,0.09,0.21,0.14,0.3c0.07,0.18,0.16,0.37,0.25,0.53 c0.18,0.37,0.37,0.74,0.6,1.08c0,0.02,0.02,0.05,0.02,0.05c0.14,0.23,0.28,0.44,0.41,0.67c0.14,0.16,0.25,0.35,0.41,0.53 c0.07,0.12,0.16,0.21,0.25,0.32c0.87,1.08,1.93,2,3.06,2.72c0.09,0.05,0.18,0.09,0.28,0.16c0.12,0.07,0.25,0.14,0.37,0.18 c0.71,0.37,1.45,0.67,2.23,0.85c0.21,0.05,0.39,0.09,0.6,0.14c0.18,0.05,0.39,0.07,0.6,0.09c0.16,0.02,0.32,0.05,0.48,0.05 c0.25,0.02,0.48,0.02,0.74,0.02c1.38,0,2.69-0.3,3.91-0.83c0.25-0.09,0.48-0.18,0.74-0.32c2.95-1.52,5.27-4.49,6.37-8.12 c0-0.02,0.02-0.07,0.02-0.09c0.46-1.52,0.71-3.15,0.71-4.88C157.61,174.91,157.61,174.66,157.59,174.43z M153.58,180.11 c-0.71,1.63-1.79,3.04-3.08,4c-1.36,1.04-2.95,1.63-4.65,1.63c-0.18,0-0.39-0.02-0.58-0.02c-0.07,0-0.12-0.02-0.18-0.02 c-0.12,0-0.23-0.02-0.35-0.05c-0.23-0.02-0.44-0.07-0.67-0.14c-0.14-0.02-0.28-0.07-0.41-0.12c-0.14-0.02-0.25-0.07-0.37-0.12 c-0.37-0.14-0.74-0.3-1.1-0.51c-0.16-0.09-0.32-0.18-0.48-0.3c-0.16-0.12-0.35-0.23-0.51-0.37c-0.16-0.12-0.3-0.23-0.46-0.37 c-0.12-0.09-0.25-0.23-0.37-0.35c-0.16-0.14-0.28-0.28-0.41-0.41c-0.07-0.07-0.12-0.14-0.18-0.21c-0.09-0.12-0.16-0.21-0.25-0.3 c-0.12-0.16-0.23-0.32-0.37-0.48c-0.09-0.16-0.21-0.35-0.32-0.51c0-0.02,0-0.02,0-0.02c-0.12-0.16-0.21-0.35-0.32-0.53 c-0.09-0.16-0.16-0.32-0.25-0.51c0,0-0.02-0.02-0.02-0.07c-0.05-0.09-0.09-0.21-0.16-0.32c-0.05-0.09-0.09-0.21-0.12-0.3 c-0.14-0.35-0.25-0.71-0.37-1.06c-0.02-0.12-0.07-0.25-0.09-0.37c-0.09-0.37-0.18-0.71-0.23-1.1c-0.05-0.21-0.07-0.44-0.09-0.67 c-0.02-0.21-0.05-0.44-0.05-0.64c-0.02-0.25-0.05-0.51-0.05-0.76c0-0.25,0.02-0.48,0.02-0.71c0.3-5.52,4.1-9.9,8.74-9.9 c4.63,0,8.42,4.37,8.72,9.9c0.02,0.23,0.02,0.46,0.02,0.71C154.59,176.94,154.23,178.62,153.58,180.11z"/></g><g><path fill="#fbb90e" d="M154.6,175.14c0,1.8-0.37,3.49-1.02,4.97c-0.72,1.64-1.79,3.03-3.09,4.02c-1.35,1.03-2.94,1.62-4.65,1.62 c-0.19,0-0.38-0.01-0.57-0.03c-0.06,0-0.13-0.01-0.18-0.01c-0.12-0.01-0.24-0.02-0.35-0.04c-0.22-0.04-0.44-0.08-0.66-0.13 c-0.14-0.04-0.29-0.07-0.42-0.12c-0.13-0.04-0.25-0.08-0.37-0.13c-0.37-0.13-0.74-0.3-1.09-0.5c-0.16-0.09-0.33-0.19-0.48-0.29 c-0.18-0.11-0.35-0.24-0.52-0.37c-0.15-0.11-0.3-0.24-0.45-0.37c-0.13-0.11-0.26-0.23-0.39-0.35c-0.14-0.14-0.27-0.27-0.41-0.42 c-0.06-0.07-0.12-0.14-0.18-0.21c-0.08-0.1-0.17-0.2-0.25-0.3c-0.13-0.15-0.25-0.32-0.37-0.48c-0.11-0.16-0.22-0.34-0.34-0.51 c0-0.01,0-0.01,0-0.01c-0.11-0.18-0.21-0.36-0.31-0.54c-0.09-0.16-0.18-0.32-0.25-0.49c-0.01-0.02-0.02-0.04-0.04-0.07 c-0.05-0.11-0.1-0.22-0.15-0.34c-0.05-0.1-0.09-0.2-0.13-0.3c-0.13-0.34-0.26-0.69-0.37-1.06c-0.04-0.11-0.07-0.24-0.1-0.36 c-0.09-0.36-0.17-0.72-0.23-1.1c-0.04-0.22-0.07-0.45-0.09-0.68c-0.02-0.21-0.04-0.43-0.05-0.65c-0.02-0.25-0.03-0.51-0.03-0.76 c0-0.24,0.01-0.47,0.02-0.7c0.29-5.53,4.09-9.91,8.73-9.91c4.64,0,8.44,4.37,8.73,9.91C154.59,174.67,154.6,174.9,154.6,175.14z"/></g><g><path fill="#cfcfd3" d="M94.74,182.04C94.74,182.04,94.74,182.04,94.74,182.04l0,25.52H81.41v-18.7 C86.82,186.64,91.27,184.22,94.74,182.04z M94.74,156.61v-15.27H81.41v17.18C85.76,157.24,90.47,156.73,94.74,156.61 C94.74,156.61,94.74,156.61,94.74,156.61z M81.41,164.88v17.21c5.55-2.43,10-5.03,13.33-7.25c0,0,0,0,0,0v-11.89c0,0,0,0,0,0 C90.44,162.99,85.72,163.48,81.41,164.88z"/></g><g><path fill="#fbb90e" d="M81.16,141.33l-2.02-4.9h17.62l-2.02,4.9H81.16z M81.16,207.56l-2.02,4.9h17.62l-2.02-4.9H81.41H81.16z"/></g><g><path fill="#cdb100" d="M96.76,136.43H79.14v-4.93h3.5h11.01h3.11V136.43z M79.14,212.46L79.14,212.46L79.14,212.46l0,3.55v1.38 h17.62v-1.38v-3.55h0l0,0H79.14z"/></g><g><path fill="#aa191d" d="M145.84,130.74h-21.43l-4.25-4.91c12.64-2.15,36.94-2.36,51.93-0.65l-4.81,5.57H145.84z M176.76,119.78 l1.4-1.61l5.08-5.87c1.47-2.41,2.25-5.14,2.28-7.86c-0.36-0.65-0.81-1.27-1.38-1.86c-3.57-3.75-9.75-6.21-16.8-6.21h-42.98 c-7.05,0-13.23,2.46-16.8,6.21c-0.56,0.59-1.02,1.21-1.38,1.85c0.03,2.72,0.81,5.46,2.28,7.87l5.1,5.89l2.2,2.56h0.01 C127.15,117.43,161.01,117.11,176.76,119.78z"/></g><g><path fill="#ab191b" d="M115.32,174.44v42.61c-1.89-1.96-3.51-4.16-4.82-6.56v-36.05H115.32z M123.71,174.44h-4.82v45.8 c1.06,0.81,2.17,1.55,3.33,2.22c0.49-0.04,0.98-0.09,1.48-0.15V174.44z M127.99,174.44v47.19c1.62-0.33,3.24-0.75,4.82-1.28v-45.9 H127.99z M140.84,188.04c-0.09-0.05-0.18-0.11-0.27-0.16c-1.14-0.7-2.19-1.61-3.07-2.71c-0.1-0.11-0.18-0.21-0.26-0.32 c-0.14-0.18-0.27-0.35-0.39-0.53c-0.14-0.21-0.29-0.42-0.42-0.65c-0.01-0.01-0.02-0.04-0.04-0.06v35.25 c1.78-0.89,3.43-1.97,4.82-3.3v-27.33C141.08,188.18,140.96,188.11,140.84,188.04z"/></g><g><path fill="#ae191b" d="M173.57,159.65l-0.04,0.78l-0.51,12.02l-3.22-0.13l0.44-10.47l-3.01,1.29l-0.9-2.1l-5.96,6.47l-2.37-2.19 l6.94-7.53l-2.37-5.5l-11.15,3.33l-0.93-3.09l9.92-2.96l-8.84-6.42l1.9-2.61l9.13,6.63v-11.61h10V149H169l4.25,9.91L173.57,159.65z"/></g><g><path fill="#08764d" d="M163,195.74c0-1.34,1.08-2.42,2.42-2.42c1.34,0,2.42,1.08,2.42,2.42c0,1.34-1.08,2.42-2.42,2.42 C164.08,198.16,163,197.08,163,195.74z"/></g><g><path fill="#fbb90e" d="M135.98,151.76v-7.04h-20v7.04h1.98v11.37h-1.98v7.04h18.85c0.3-0.99,0.67-1.91,1.15-2.78v-4.26H134v-11.37 H135.98z M123.09,159.36h-3.87v-3.68c0-1.06,0.87-1.93,1.93-1.93c1.06,0,1.93,0.87,1.93,1.93V159.36z M132.32,159.36h-3.84v-3.68 c0-1.06,0.87-1.93,1.93-1.93s1.91,0.87,1.91,1.93V159.36z M127.27,143.39h-2.58v-4.84h2.58V143.39z M122.12,143.39h-2.58v-2.58h2.58 V143.39z M132.74,143.39h-2.58v-2.58h2.58V143.39z"/></g><g><path fill="#cdb100" d="M120.17,125.82l-4.39-5.08c11.38-3.31,45.24-3.64,60.99-0.96l-4.67,5.39 C157.1,123.47,132.8,123.68,120.17,125.82z M183.26,96.53c-3.49-5.4-9.53-8.95-16.41-8.95h-19.7V75.44h-2.82v12.14h-19.49 c-6.89,0-12.92,3.55-16.41,8.95c-1.54,2.39-2.28,5.14-2.25,7.9c0.36-0.65,0.81-1.26,1.38-1.85c3.57-3.75,9.75-6.21,16.8-6.21h42.98 c7.05,0,13.23,2.46,16.8,6.21c0.57,0.59,1.02,1.21,1.38,1.86C185.54,101.68,184.81,98.92,183.26,96.53z"/></g><g><path fill="#aa191d" d="M106.72,157.13v6.68c-2.59-0.4-7.01-0.93-11.98-0.87c0,0,0,0,0,0c-4.3,0.05-9.02,0.54-13.33,1.94 c0,0,0,0,0,0c-2.57,0.84-5,1.99-7.1,3.57l-2.19-5.33c2.62-2.13,5.85-3.62,9.29-4.61c0,0,0,0,0,0c4.35-1.27,9.05-1.78,13.33-1.9 c0,0,0,0,0,0C99.73,156.45,104.13,156.82,106.72,157.13z M94.74,174.66C94.74,174.66,94.74,174.66,94.74,174.66 c-3.33,2.13-7.78,4.61-13.33,6.94c0,0,0,0,0,0c-2.35,0.99-4.9,1.95-7.64,2.83l0.95,6.02c2.37-0.75,4.61-1.54,6.7-2.36c0,0,0,0,0,0 c5.4-2.13,9.85-4.44,13.33-6.53c0,0,0,0,0,0c2.1-1.26,3.85-2.44,5.23-3.44v-7.15C98.76,171.93,97.01,173.21,94.74,174.66z"/></g><g><path fill="#cfcfd3" d="M210.28,164.88v17.21c-5.55-2.43-10-5.03-13.33-7.25c0,0,0,0,0,0v-11.89c0,0,0,0,0,0 C201.26,162.99,205.98,163.48,210.28,164.88z M196.96,182.04v25.52h13.33v-18.7C204.88,186.64,200.43,184.22,196.96,182.04 C196.96,182.04,196.96,182.04,196.96,182.04z M210.28,158.51v-17.18h-13.33v15.27c0,0,0,0,0,0 C201.23,156.73,205.93,157.24,210.28,158.51z"/></g><g><path fill="#fbb90e" d="M196.96,141.33l-2.02-4.9h17.62l-2.02,4.9H196.96z M194.94,212.46h17.62l-2.02-4.9h-0.25h-13.33 L194.94,212.46z"/></g><g><path fill="#cdb100" d="M212.56,136.43h-17.62v-4.93h3.11h11.01h3.5V136.43z M194.94,212.46L194.94,212.46L194.94,212.46l0,3.55 v1.38h17.62v-1.38v-3.55h0l0,0H194.94z"/></g><g><path fill="#164899" d="M96.76,217.39v-1.38l3.93,1.03v10.38l-3.98-1.07c-0.82-0.22-1.68-0.25-2.52-0.09l-5.05,0.96 c-0.7,0.13-1.43,0.13-2.13-0.01l-4.97-0.95c-0.84-0.16-1.7-0.13-2.52,0.08l-4.06,1.07v-10.38l3.68-1.03v1.38H96.76z M194.94,217.39 v-1.38l-3.93,1.03v10.38l3.98-1.07c0.82-0.22,1.68-0.25,2.52-0.09l5.05,0.96c0.7,0.13,1.43,0.13,2.13-0.01l4.97-0.95 c0.84-0.16,1.7-0.13,2.52,0.08l4.06,1.07v-10.38l-3.68-1.03v1.38H194.94z"/></g><g><path fill="#aa191d" d="M93.65,131.5H82.64l-2.62-4.3c-0.65-1.05-0.67-2.39-0.01-3.43c0.76-1.17,2.07-1.94,3.57-1.94h9.13 c1.5,0,2.81,0.77,3.57,1.94c0.67,1.03,0.64,2.37-0.01,3.43L93.65,131.5z M211.68,127.2c0.65-1.05,0.67-2.39,0.01-3.43 c-0.76-1.17-2.07-1.94-3.57-1.94h-9.13c-1.5,0-2.81,0.77-3.57,1.94c-0.67,1.03-0.64,2.37,0.01,3.43l2.62,4.3h11.01L211.68,127.2z"/></g><g><path fill="#aa191d" d="M219.58,163.12l-2.19,5.33c-2.11-1.58-4.53-2.74-7.1-3.57c-2.16-0.69-4.41-1.17-6.67-1.47 c-2.25-0.3-4.51-0.44-6.66-0.46c-4.97-0.06-9.39,0.47-11.98,0.87v-6.68c2.17-0.25,5.61-0.55,9.61-0.55c0.77,0,1.56,0.01,2.37,0.04 c4.28,0.13,8.98,0.63,13.33,1.9C213.73,159.51,216.96,160.99,219.58,163.12z M210.29,182.08 C210.29,182.08,210.29,182.08,210.29,182.08c-5.55-2.43-10-5.03-13.33-7.25c0,0,0,0,0,0c-2.27-1.52-4.02-2.86-5.23-3.86v7.48 c1.38,1.05,3.13,2.27,5.23,3.59c0,0,0,0,0,0c3.47,2.18,7.92,4.6,13.33,6.82c0,0,0,0,0,0c2.09,0.86,4.32,1.69,6.7,2.47l0.95-6.29 C215.19,184.12,212.64,183.11,210.29,182.08z"/></g><g><path fill="#67631e" d="M149.18,87.58c0,1.84-1.49,3.34-3.34,3.34s-3.34-1.49-3.34-3.34s1.49-3.34,3.34-3.34 S149.18,85.74,149.18,87.58z"/></g><g><path fill="#fbb90e" d="M165.41,217.22c-8.61,0-15.61-6.86-15.61-15.29v-13.37h1v13.37c0,7.88,6.56,14.29,14.61,14.29 c8.06,0,14.62-6.41,14.62-14.29v-21.41h-22.6v-1h23.6v22.41C181.03,210.36,174.02,217.22,165.41,217.22z M166.11,182.04h-1.4v9.71 h1.4V182.04z M161.47,194.84h-9.71v1.4h9.71V194.84z M178.7,195.04h-9.71v1.4h9.71V195.04z M166.11,199.73h-1.4v15.19h1.4V199.73z"/></g><g><path fill="#164899" d="M123.08,155.67v3.68h-3.85v-3.68c0-1.06,0.86-1.92,1.92-1.92h0C122.22,153.75,123.08,154.61,123.08,155.67z M130.4,153.75c-1.06,0-1.92,0.86-1.92,1.92v3.68h3.85v-3.68C132.33,154.61,131.46,153.75,130.4,153.75z M125.85,163.85 c-1.06,0-1.92,0.86-1.92,1.92v3.68h3.85v-3.68C127.78,164.71,126.92,163.85,125.85,163.85z"/></g></svg>